<?xml version="1.0" encoding="utf-8"?>
<!-- Generator: Adobe Illustrator 27.3.1, SVG Export Plug-In . SVG Version: 6.00 Build 0)  -->
<svg version="1.1" id="Layer_1" xmlns="http://www.w3.org/2000/svg" xmlns:xlink="http://www.w3.org/1999/xlink" x="0px" y="0px"
	 viewBox="0 0 512 135" style="enable-background:new 0 0 512 135;" xml:space="preserve">
<style type="text/css">
	.st0{fill:#FFFFFF;}
</style>
<g>
	<path class="st0" d="M43.5,0.1c0.1-0.1,0.3-0.1,0.4,0l0,0l43.3,25c0.1,0.1,0.2,0.2,0.2,0.3l0,0v9.7c0,0.1,0,0.1-0.1,0.2l0,0
		L43.8,60.3c-0.1,0-0.1,0.1-0.1,0.2l0,0v9.6c0,0.1,0,0.1,0.1,0.2s0.1,0,0.2,0l0,0l43.1-24.8c0.1,0,0.1,0,0.2,0
		c0.1,0,0.1,0.1,0.1,0.2l0,0v9.6c0,0.1,0,0.1-0.1,0.2l0,0L43.8,80.5c-0.1,0-0.1,0.1-0.1,0.2l0,0v9.6c0,0.1,0,0.1,0.1,0.2
		c0.1,0,0.1,0,0.2,0l0,0l43.1-24.8c0.1,0,0.1,0,0.2,0c0.1,0,0.1,0.1,0.1,0.2l0,0v9.6c0,0.1,0,0.1-0.1,0.2l0,0l-43.5,25.1
		c-0.1,0-0.1,0.1-0.1,0.2l0,0v33.8c0,0.1,0,0.1-0.1,0.2c-0.1,0-0.1,0-0.2,0l0,0L35,130c-0.1,0-0.1-0.1-0.1-0.2l0,0V45.4
		c0-0.1,0-0.1-0.1-0.2l0,0l-8.3-4.8c-0.1,0-0.1,0-0.2,0c-0.1,0-0.1,0.1-0.1,0.2l0,0v84c0,0.1,0,0.1-0.1,0.2s-0.1,0-0.2,0l0,0
		l-8.3-4.8c-0.1,0-0.1-0.1-0.1-0.2l0,0V35.3c0-0.1,0-0.1-0.1-0.2l0,0L9,30.3c-0.1,0-0.1,0-0.2,0c-0.1,0-0.1,0.1-0.1,0.2l0,0v83.9
		c0,0.1,0,0.1-0.1,0.2c-0.1,0-0.1,0-0.2,0l0,0l-8.3-4.8c-0.1,0-0.1-0.1-0.1-0.2l0,0V25.1l8.5-4.9c0.1-0.1,0.3-0.1,0.4,0l0,0l43.2,25
		c0.1,0.1,0.3,0.1,0.4,0l0,0l8.2-4.7c0.1,0,0.1-0.1,0.1-0.2s0-0.1-0.1-0.2l0,0L17.8,15.2c-0.1,0-0.1-0.1-0.1-0.2
		c0-0.1,0-0.1,0.1-0.2l0,0l8.2-4.7c0.1-0.1,0.3-0.1,0.4,0l0,0l43.3,25c0.1,0.1,0.3,0.1,0.4,0l0,0l8.2-4.7c0.1,0,0.1-0.1,0.1-0.2
		c0-0.1,0-0.1-0.1-0.2l0,0L35.2,5.2c-0.1,0-0.1-0.1-0.1-0.2s0-0.1,0.1-0.2l0,0L43.5,0.1z M282.8,24.1c12.2,0,23,6.8,23.6,24
		c0,0.9-0.7,1.6-1.6,1.7h-8c-0.8,0-1.5-0.6-1.6-1.5c-0.5-9.4-6.2-13.8-13.2-13.8c-6.8,0-11.8,4-11.8,10.3c0,5.5,3.3,8.5,12,14.5
		l12.1,8.7c8.4,6.1,13.1,11.6,13.1,20.2c0,14-11.6,22.4-25.2,22.4c-12.9,0-23-7-24.1-24.2c0-0.4,0.1-0.9,0.4-1.2
		c0.3-0.3,0.7-0.5,1.1-0.5h8.2c0.8,0,1.5,0.6,1.6,1.5c0.7,9.6,6.5,14,13.3,14c6.5,0,12.6-3.5,12.6-11.7c0-5.1-2.3-7.6-8.9-12
		l-14-9.7c-8.4-5.6-14-11.9-14-21.4C258.4,31.9,269.8,24.1,282.8,24.1z M203,25c0.4,0,0.8,0.1,1.1,0.4s0.5,0.7,0.5,1.1v61.3
		c0,7.6,5.8,12.4,12.7,12.4c6.9,0,12.9-4.8,12.9-12.4V26.6c0.1-0.9,0.8-1.5,1.7-1.6h8.8c0.4,0,0.8,0.1,1.1,0.4
		c0.3,0.3,0.5,0.7,0.5,1.1V88c0,14-11.4,22.5-24.8,22.5c-13.1,0-24.5-8.6-24.5-22.5V26.5c0-0.4,0.2-0.8,0.5-1.1s0.7-0.4,1.1-0.4H203
		z M486.3,25.1c14.7,0,24.9,9.3,24.9,23.2c0,9.2-4.9,16.9-13.8,21.4c-0.1,0-0.2,0.1-0.2,0.2c0,0.1,0,0.1,0,0.2l0,0.1l14.7,37.5
		c0.2,0.5,0.1,1-0.2,1.5c-0.3,0.4-0.7,0.6-1.2,0.7l-0.2,0h-9.1c-0.9-0.2-1.6-0.7-2-1.6l-0.1-0.2l-13-35.4c-0.1-0.3-0.3-0.5-0.6-0.5
		l-0.1,0h-12c-0.4,0-0.7,0.3-0.8,0.7l0,0.1V108c0,0.4-0.2,0.8-0.5,1.1c-0.3,0.3-0.6,0.4-0.9,0.4l-0.2,0h-8.8c-0.4,0-0.8-0.1-1.1-0.4
		c-0.3-0.2-0.4-0.6-0.4-0.9l0-0.2V26.7c0-0.4,0.2-0.8,0.5-1.1c0.3-0.3,0.6-0.4,0.9-0.4l0.2,0H486.3z M156.8,25.1
		c15.3,0,24.9,8.9,24.9,23.9c0,14.8-10.6,24.3-24.6,24.5l-0.4,0h-12.9c-0.4,0-0.7,0.3-0.8,0.7l0,0.1v33.9c0,0.4-0.2,0.8-0.5,1.1
		c-0.3,0.3-0.6,0.4-0.9,0.4l-0.2,0h-8.8c-0.8-0.1-1.4-0.7-1.5-1.5l0-0.1V26.7c0-0.4,0.2-0.8,0.5-1.1c0.3-0.3,0.6-0.4,1-0.4l0.2,0
		H156.8z M334.9,25.1c0.4,0,0.8,0.1,1.1,0.4s0.5,0.7,0.5,1.1v34c0,0.4,0.4,0.8,0.8,0.8h25.9c0.4,0,0.8-0.3,0.8-0.8v-34
		c0-0.4,0.2-0.8,0.5-1.1c0.3-0.3,0.7-0.4,1.1-0.4h8.8c0.4,0,0.8,0.1,1.1,0.4s0.5,0.7,0.5,1.1v81.4c0,0.4-0.2,0.8-0.5,1.1
		c-0.3,0.3-0.7,0.4-1.1,0.4h-8.8c-0.4,0-0.8-0.2-1.1-0.5c-0.3-0.3-0.5-0.7-0.4-1.1V72.4c0-0.4-0.4-0.8-0.8-0.8h-25.9
		c-0.4,0-0.8,0.4-0.8,0.8V108c0,0.4-0.2,0.8-0.5,1.1c-0.3,0.3-0.7,0.4-1.1,0.4h-8.8c-0.4,0-0.8-0.1-1.1-0.4
		c-0.3-0.3-0.5-0.7-0.5-1.1V26.7c0-0.4,0.2-0.8,0.5-1.1c0.3-0.3,0.7-0.4,1.1-0.4H334.9z M442.7,25.1c0.4,0,0.8,0.1,1.1,0.4
		s0.5,0.7,0.5,1.1v7.1c0,0.4-0.2,0.8-0.5,1.1c-0.3,0.3-0.7,0.4-1.1,0.4h-31.8c-0.4,0-0.8,0.4-0.8,0.8V61c0,0.4,0.4,0.8,0.8,0.8h21.9
		c0.4,0,0.8,0.1,1.1,0.4c0.3,0.3,0.5,0.7,0.5,1.1v7.1c0,0.4-0.2,0.8-0.5,1.1s-0.7,0.4-1.1,0.4h-21.9c-0.4,0-0.8,0.4-0.8,0.8v25.9
		c0,0.4,0.4,0.8,0.8,0.8h31.8c0.8,0,1.5,0.7,1.6,1.5v7.1c0,0.8-0.7,1.5-1.6,1.5h-43c-0.4,0-0.8-0.1-1.1-0.4
		c-0.3-0.3-0.5-0.7-0.4-1.1V26.7c0-0.4,0.2-0.8,0.5-1.1c0.3-0.3,0.7-0.4,1.1-0.4H442.7z M156.8,35.1h-13.1c-0.4,0-0.7,0.3-0.8,0.7
		l0,0.1v26.8c0,0.4,0.3,0.7,0.7,0.8l0.1,0l13,0c8.1,0,12.7-6.7,12.7-14.4C169.5,41.1,165.3,35.1,156.8,35.1z M485.4,35.1h-12
		c-0.4,0-0.7,0.3-0.7,0.6l0,0.1v25.8c0,0.4,0.3,0.7,0.7,0.8l0.1,0l11.9,0.1c7,0,13.3-4.8,13.5-13.3l0-0.4
		C498.8,40.9,493.8,35.1,485.4,35.1z"/>
</g>
</svg>
